# xmcd CD database file
#
# Track frame offsets:
#	150
#	18140
#	39162
#	54597
#	75197
#	94127
#	107690
#	125010
#	142680
#	163980
#	182225
#	200540
#
# Disc length: 2941 seconds
#
# Revision: 0
# Processed by: cddbd v1.5.1PL0 Copyright (c) Steve Scherf et al.
# Submitted via: CDex 1.51
#
DISCID=920b7b0c
DTITLE=neighbour youth - Ready Steady Go !!
DYEAR=2002
DGENRE=Rock
TTITLE0=fuzzy days
TTITLE1=canvas story
TTITLE2=lost identity
TTITLE3=fragile
TTITLE4=夢の行き先
TTITLE5=追憶
TTITLE6=結局 君が好きなのさ(Album version)
TTITLE7=Sensibility
TTITLE8=substitute
TTITLE9=Come on ! Come on !!
TTITLE10=星になった君へ
TTITLE11=never mind
EXTD=YEAR: 2002
EXTT0=
EXTT1=
EXTT2=
EXTT3=
EXTT4=
EXTT5=
EXTT6=
EXTT7=
EXTT8=
EXTT9=
EXTT10=
EXTT11=
PLAYORDER=
